<svg width="60" height="50" viewBox="0 0 60 50" fill="none" xmlns="http://www.w3.org/2000/svg">
<path d="M38.1886 48.6038L58.5978 28.3785C60.4674 26.5147 60.4674 23.4893 58.5978 21.6317L38.1886 1.3944C36.3034 -0.469471 33.252 -0.460121 31.3668 1.3944C29.5004 3.26139 29.5004 6.27428 31.3668 8.14128L43.3066 19.9711L5.00537 19.9711C2.23853 19.9711 -3.8147e-06 22.2035 -3.8147e-06 24.9665C-3.8147e-06 27.7264 2.23853 29.9619 5.00537 29.9619L43.3787 29.9619L31.3668 41.8541C29.5004 43.7179 29.5004 46.7339 31.3668 48.5978C33.249 50.4648 36.3003 50.4677 38.1886 48.6038Z" fill="#E91889"/>
</svg>
