<svg width="148" height="523" viewBox="0 0 148 523" fill="none" xmlns="http://www.w3.org/2000/svg">
<g filter="url(#filter0_f)">
<rect x="50" y="50" width="48" height="232" rx="22" fill="#E91889"/>
</g>
<g filter="url(#filter1_f)">
<rect x="50" y="299" width="48" height="174" rx="22" fill="#25CEE5" fill-opacity="0.7"/>
</g>
<path d="M77.8449 103.6C72.0049 103.6 69.0849 100.96 69.0849 95.68V77.08H64.8249C64.5049 77.08 64.2249 76.98 63.9849 76.78C63.7849 76.54 63.6849 76.26 63.6849 75.94C63.6849 75.54 63.8649 75.2 64.2249 74.92L72.3849 66.94C72.7449 66.58 73.0849 66.4 73.4049 66.4C73.7249 66.4 73.9849 66.52 74.1849 66.76C74.4249 67 74.5449 67.28 74.5449 67.6V72.4H81.3249C82.0049 72.4 82.5649 72.62 83.0049 73.06C83.4449 73.5 83.6649 74.06 83.6649 74.74C83.6649 75.38 83.4449 75.94 83.0049 76.42C82.5649 76.86 82.0049 77.08 81.3249 77.08H74.5449V95.2C74.5449 96.76 74.9049 97.76 75.6249 98.2C76.3849 98.6 77.3249 98.8 78.4449 98.8C79.2449 98.8 80.0449 98.68 80.8449 98.44C81.0049 98.4 81.1649 98.36 81.3249 98.32C81.5249 98.28 81.7649 98.26 82.0449 98.26C82.6049 98.26 83.1049 98.48 83.5449 98.92C83.9849 99.32 84.2049 99.82 84.2049 100.42C84.2049 101.34 83.7449 102.04 82.8249 102.52C81.2649 103.24 79.6049 103.6 77.8449 103.6ZM69.9556 153.3C69.1956 153.3 68.5556 153.04 68.0356 152.52C67.5156 152 67.2556 151.36 67.2556 150.6V124.86C67.2556 124.1 67.5156 123.46 68.0356 122.94C68.5556 122.38 69.1956 122.1 69.9556 122.1C70.7156 122.1 71.3556 122.38 71.8756 122.94C72.4356 123.46 72.7156 124.1 72.7156 124.86V127.44C75.5156 123.68 78.6556 121.8 82.1356 121.8H82.4356C83.1956 121.8 83.8156 122.06 84.2956 122.58C84.8156 123.1 85.0756 123.74 85.0756 124.5C85.0756 125.26 84.8156 125.88 84.2956 126.36C83.7756 126.84 83.1156 127.08 82.3156 127.08H82.0156C80.0956 127.08 78.3356 127.56 76.7356 128.52C75.1356 129.44 73.7956 130.72 72.7156 132.36V150.6C72.7156 151.36 72.4356 152 71.8756 152.52C71.3556 153.04 70.7156 153.3 69.9556 153.3ZM69.6943 203.6C67.9343 203.6 66.2943 203.24 64.7743 202.52C63.2943 201.8 62.1143 200.76 61.2343 199.4C60.3543 198 59.9143 196.4 59.9143 194.6C59.9143 191.64 61.0743 189.28 63.3943 187.52C65.7543 185.76 69.1943 184.88 73.7143 184.88H80.9743V184.4C80.9743 181.76 80.3143 179.86 78.9943 178.7C77.7143 177.54 75.6943 176.96 72.9343 176.96C71.4143 176.96 70.0543 177.08 68.8543 177.32C67.6943 177.56 66.3943 177.92 64.9543 178.4C64.6343 178.48 64.3743 178.52 64.1743 178.52C63.5743 178.52 63.0543 178.3 62.6143 177.86C62.1743 177.42 61.9543 176.88 61.9543 176.24C61.9543 175.16 62.4743 174.4 63.5143 173.96C66.9143 172.52 70.3743 171.8 73.8943 171.8C76.6543 171.8 78.9743 172.36 80.8543 173.48C82.7743 174.6 84.1743 176.06 85.0543 177.86C85.9743 179.62 86.4343 181.54 86.4343 183.62V200.6C86.4343 201.36 86.1543 202 85.5943 202.52C85.0743 203.04 84.4343 203.3 83.6743 203.3C82.9143 203.3 82.2743 203.04 81.7543 202.52C81.2343 202 80.9743 201.36 80.9743 200.6V199.04C78.0143 202.08 74.2543 203.6 69.6943 203.6ZM71.7343 198.8C73.4943 198.8 75.1943 198.38 76.8343 197.54C78.4743 196.66 79.8543 195.58 80.9743 194.3V189.26H74.4343C68.3943 189.26 65.3743 190.84 65.3743 194C65.3743 195.44 65.8543 196.6 66.8143 197.48C67.8143 198.36 69.4543 198.8 71.7343 198.8ZM62.5142 267.1C61.7542 267.1 61.1142 266.82 60.5942 266.26C60.0742 265.74 59.8142 265.1 59.8142 264.34V224.8C59.8142 224.04 60.0742 223.4 60.5942 222.88C61.1142 222.36 61.7542 222.1 62.5142 222.1C63.2742 222.1 63.9142 222.36 64.4342 222.88C64.9942 223.4 65.2742 224.04 65.2742 224.8V226.36C68.1942 223.32 71.6142 221.8 75.5342 221.8C78.0142 221.8 80.3542 222.44 82.5542 223.72C84.7942 224.96 86.5942 226.8 87.9542 229.24C89.3542 231.64 90.0542 234.46 90.0542 237.7C90.0542 240.94 89.3542 243.78 87.9542 246.22C86.5942 248.62 84.7942 250.46 82.5542 251.74C80.3542 252.98 78.0142 253.6 75.5342 253.6C71.6142 253.6 68.1942 252.08 65.2742 249.04V264.34C65.2742 265.14 65.0142 265.8 64.4942 266.32C63.9742 266.84 63.3142 267.1 62.5142 267.1ZM74.7542 248.5C77.7142 248.5 80.0942 247.56 81.8942 245.68C83.6942 243.8 84.5942 241.14 84.5942 237.7C84.5942 234.26 83.6942 231.6 81.8942 229.72C80.0942 227.84 77.7142 226.9 74.7542 226.9C72.9142 226.9 71.1742 227.32 69.5342 228.16C67.9342 228.96 66.5142 230.04 65.2742 231.4V244C66.5142 245.36 67.9342 246.46 69.5342 247.3C71.1742 248.1 72.9142 248.5 74.7542 248.5Z" fill="#25CEE5"/>
<path d="M73.9693 353.3C73.2093 353.3 72.5693 353.04 72.0493 352.52C71.5293 352 71.2693 351.36 71.2693 350.6V311.66C71.2693 310.9 71.5293 310.26 72.0493 309.74C72.5693 309.18 73.2093 308.9 73.9693 308.9C74.7693 308.9 75.4293 309.16 75.9493 309.68C76.4693 310.2 76.7293 310.86 76.7293 311.66V350.6C76.7293 351.36 76.4493 352 75.8893 352.52C75.3693 353.04 74.7293 353.3 73.9693 353.3ZM70.8988 403.6C68.6988 403.6 66.7788 403.08 65.1388 402.04C63.5388 401 62.2988 399.58 61.4188 397.78C60.5788 395.98 60.1588 394 60.1588 391.84V374.8C60.1588 374.04 60.4188 373.4 60.9388 372.88C61.4988 372.36 62.1588 372.1 62.9188 372.1C63.6788 372.1 64.3188 372.36 64.8388 372.88C65.3588 373.4 65.6188 374.04 65.6188 374.8V391.24C65.6188 396.12 67.8188 398.56 72.2188 398.56C74.2188 398.56 75.9988 398.04 77.5588 397C79.1588 395.96 80.6588 394.56 82.0588 392.8V374.8C82.0588 374.04 82.3188 373.4 82.8388 372.88C83.3988 372.36 84.0588 372.1 84.8188 372.1C85.5788 372.1 86.2188 372.36 86.7388 372.88C87.2588 373.4 87.5188 374.04 87.5188 374.8V400.54C87.5188 401.3 87.2588 401.96 86.7388 402.52C86.2188 403.04 85.5788 403.3 84.8188 403.3C84.0588 403.3 83.3988 403.04 82.8388 402.52C82.3188 401.96 82.0588 401.3 82.0588 400.54V398.08C80.5388 399.76 78.8988 401.1 77.1388 402.1C75.3788 403.1 73.2988 403.6 70.8988 403.6ZM73.6918 453.3C72.9718 453.3 72.3118 453.1 71.7118 452.7C71.1118 452.26 70.6718 451.72 70.3918 451.08L59.9518 426.12C59.7518 425.64 59.6518 425.22 59.6518 424.86C59.6518 424.1 59.9118 423.46 60.4318 422.94C60.9518 422.38 61.5918 422.1 62.3518 422.1C62.8718 422.1 63.3518 422.26 63.7918 422.58C64.2718 422.86 64.6118 423.22 64.8118 423.66L73.9918 446.94L83.1718 423.66C83.3718 423.22 83.6918 422.86 84.1318 422.58C84.6118 422.26 85.1118 422.1 85.6318 422.1C86.3918 422.1 87.0318 422.38 87.5518 422.94C88.0718 423.46 88.3318 424.1 88.3318 424.86C88.3318 425.22 88.2318 425.64 88.0318 426.12L77.5918 451.08C77.3118 451.72 76.8718 452.26 76.2718 452.7C75.6718 453.1 75.0118 453.3 74.2918 453.3H73.6918Z" fill="#E91889"/>
<defs>
<filter id="filter0_f" x="0" y="0" width="148" height="332" filterUnits="userSpaceOnUse" color-interpolation-filters="sRGB">
<feFlood flood-opacity="0" result="BackgroundImageFix"/>
<feBlend mode="normal" in="SourceGraphic" in2="BackgroundImageFix" result="shape"/>
<feGaussianBlur stdDeviation="25" result="effect1_foregroundBlur"/>
</filter>
<filter id="filter1_f" x="0" y="249" width="148" height="274" filterUnits="userSpaceOnUse" color-interpolation-filters="sRGB">
<feFlood flood-opacity="0" result="BackgroundImageFix"/>
<feBlend mode="normal" in="SourceGraphic" in2="BackgroundImageFix" result="shape"/>
<feGaussianBlur stdDeviation="25" result="effect1_foregroundBlur"/>
</filter>
</defs>
</svg>
