<svg width="68" height="68" viewBox="0 0 68 68" fill="none" xmlns="http://www.w3.org/2000/svg">
<path d="M44.4218 36.7134H34.7087V46.4266H44.4218V36.7134ZM43.0821 45.0868H36.0484V38.0532H43.0821V45.0868Z" fill="#25CEE5"/>
<path d="M17.292 33.967V54.8H48.776V33.967L51.4555 36.6465L54.068 34.034L48.776 28.742V16.6173H42.4122V22.3782L33.034 13L12 34.034L14.6125 36.6465L17.292 33.967ZM30.0196 53.4603H22.9859V38.0532H30.0196V53.4603ZM47.4362 32.6942V53.4603H31.3593V36.7135H21.6462V53.4603H18.6317V32.6942H18.5647L33.034 18.225L47.5032 32.6942H47.4362ZM33.034 14.8756L43.7519 25.5936V17.9571H47.4362V29.2779L52.1923 34.034L51.4555 34.7708L33.034 16.3494L14.6125 34.7708L13.8756 34.034L33.034 14.8756Z" fill="#25CEE5"/>
<rect x="1.5" y="1.5" width="65" height="65" rx="19.5" stroke="#25CEE5" stroke-width="3"/>
</svg>
