<svg width="68" height="68" viewBox="0 0 68 68" fill="none" xmlns="http://www.w3.org/2000/svg">
<path d="M45.2272 29.5908C46.3067 29.5908 47.1818 28.7158 47.1818 27.6363C47.1818 26.5568 46.3067 25.6818 45.2272 25.6818C44.1478 25.6818 43.2727 26.5568 43.2727 27.6363C43.2727 28.7158 44.1478 29.5908 45.2272 29.5908Z" fill="#25CEE5"/>
<path d="M23.2933 20.7953C23.5338 20.7953 23.7273 20.6214 23.7273 20.4045V19.2317C23.7273 19.0167 23.5338 18.8409 23.2933 18.8409H20.2521C20.0117 18.8409 19.8182 19.0148 19.8182 19.2317V20.4045C19.8182 20.6195 20.0117 20.7953 20.2521 20.7953H23.2933Z" fill="#25CEE5"/>
<path d="M34.4773 43.2727C39.3343 43.2727 43.2727 39.3342 43.2727 34.4772C43.2727 29.6201 39.3343 25.6817 34.4773 25.6817C29.6202 25.6817 25.6818 29.6201 25.6818 34.4772C25.6818 39.3342 29.6202 43.2727 34.4773 43.2727ZM34.4773 27.6363C38.2554 27.6363 41.3181 30.6991 41.3181 34.4772C41.3181 38.2553 38.2554 41.3181 34.4773 41.3181C30.6992 41.3181 27.6363 38.2553 27.6363 34.4772C27.6363 30.6991 30.6992 27.6363 34.4773 27.6363Z" fill="#25CEE5"/>
<path d="M12 25.6818V45.2273C12 49.1364 15.9091 49.1364 15.9091 49.1364H51.0909C51.0909 49.1364 55 49.1364 55 45.2273V25.6818C55 21.7727 51.0909 21.7727 51.0909 21.7727H43.6636L41.5879 18.3151C41.4393 18.0649 41.0797 17.8636 40.7983 17.8636H28.1563C27.869 17.8636 27.5113 18.0728 27.3666 18.3151L25.2909 21.7727H15.9091C15.9091 21.7726 12 21.7726 12 25.6818ZM26.6083 23.7272L28.7856 19.8181H39.9813L42.4576 23.7272H51.0694C51.0694 23.7272 53.0454 23.7272 53.0454 25.717V45.1901C53.0454 47.1818 51.0694 47.1818 51.0694 47.1818H15.9306C15.9306 47.1818 13.9545 47.1818 13.9545 45.1901V25.717C13.9545 23.7272 15.9306 23.7272 15.9306 23.7272H26.6083Z" fill="#25CEE5"/>
<rect x="1.5" y="1.5" width="65" height="65" rx="19.5" stroke="#25CEE6" stroke-width="3"/>
</svg>
