<svg width="68" height="68" viewBox="0 0 68 68" fill="none" xmlns="http://www.w3.org/2000/svg">
<g clip-path="url(#clip0)">
<path d="M36.8669 41.9975C36.8199 41.9975 36.7729 41.9938 36.7259 41.9866C36.3853 41.933 36.1056 41.6907 36.0032 41.3616L33.5512 33.4674L25.6619 31.013C25.3334 30.9106 25.0911 30.6309 25.0374 30.2904C24.9832 29.9504 25.1273 29.6093 25.4081 29.4104L32.154 24.6372L32.048 16.3706C32.0437 16.0264 32.2348 15.7088 32.5416 15.5527C32.8484 15.3966 33.2161 15.4279 33.4927 15.634L40.1133 20.5783L47.9375 17.9233C48.2618 17.8124 48.624 17.8967 48.8669 18.1402C49.1104 18.3838 49.1942 18.7448 49.0845 19.0709L46.4306 26.8999L51.3713 33.5253C51.5775 33.8013 51.6088 34.1702 51.4527 34.4776C51.296 34.7838 50.997 34.9755 50.6354 34.9713L42.3754 34.8658L37.6053 41.6153C37.4335 41.8576 37.1574 41.9975 36.8669 41.9975ZM27.9481 29.8293L34.5421 31.8804C34.826 31.9684 35.0484 32.1914 35.137 32.4753L37.1864 39.0741L41.1735 33.4325C41.3453 33.1896 41.5984 33.0419 41.9233 33.0503L48.8272 33.1383L44.6971 27.6009C44.5193 27.3622 44.4699 27.0512 44.5651 26.7691L46.7832 20.2257L40.2441 22.4444C39.962 22.5403 39.6516 22.4909 39.4129 22.313L33.8797 18.1806L33.9677 25.0893C33.9713 25.387 33.8291 25.6679 33.5862 25.8397L27.9481 29.8293Z" fill="#25CEE5"/>
<path d="M16.2295 53C15.7666 53 15.3043 52.8234 14.9511 52.4696C14.2447 51.7632 14.2447 50.6173 14.9511 49.9109L27.7775 37.0755C28.4839 36.3685 29.6279 36.3685 30.3344 37.0755C31.0408 37.7819 31.0408 38.9277 30.3344 39.6341L17.508 52.4696C17.1548 52.8234 16.6918 53 16.2295 53Z" fill="#25CEE5"/>
<path d="M51.1049 28.317C50.4732 28.9493 49.4486 28.9493 48.8175 28.317C48.1852 27.6847 48.1852 26.6601 48.8175 26.0278C49.4486 25.3955 50.4732 25.3955 51.1049 26.0278C51.7366 26.6601 51.7366 27.6847 51.1049 28.317Z" fill="#25CEE5"/>
<path d="M40.5587 17.7636C39.927 18.3958 38.9024 18.3958 38.2713 17.7636C37.6396 17.1313 37.6396 16.106 38.2713 15.4743C38.9024 14.8421 39.927 14.8421 40.5587 15.4743C41.1904 16.106 41.1904 17.1313 40.5587 17.7636Z" fill="#25CEE5"/>
<path d="M46.1419 39.4913C45.5103 40.1236 44.4862 40.1236 43.8545 39.4913C43.2222 38.859 43.2222 37.8343 43.8545 37.2021C44.4862 36.5698 45.5103 36.5698 46.1419 37.2021C46.7736 37.8343 46.7736 38.859 46.1419 39.4913Z" fill="#25CEE5"/>
<path d="M30.0125 23.3504C29.3808 23.9827 28.3568 23.9827 27.7251 23.3504C27.0934 22.7187 27.0934 21.6934 27.7251 21.0612C28.3568 20.4295 29.3808 20.4295 30.0125 21.0612C30.6442 21.6934 30.6442 22.7187 30.0125 23.3504Z" fill="#25CEE5"/>
</g>
<rect x="1.5" y="1.5" width="65" height="65" rx="19.5" stroke="#25CEE5" stroke-width="3"/>
<defs>
<clipPath id="clip0">
<rect x="14" y="15" width="38" height="38" fill="white"/>
</clipPath>
</defs>
</svg>
